<svg width="10" height="14" viewBox="0 0 10 14" fill="none" xmlns="http://www.w3.org/2000/svg">
<path d="M5.00108 0.666504C4.69441 0.666504 4.38108 0.693171 4.06774 0.759837C2.22774 1.11317 0.761075 2.59984 0.414408 4.43984C0.0944084 6.17984 0.734409 7.77984 1.89441 8.81317C2.18108 9.0665 2.33441 9.41984 2.33441 9.79317V11.3332C2.33441 12.0665 2.93441 12.6665 3.66774 12.6665H3.85441C4.08774 13.0665 4.50774 13.3332 5.00108 13.3332C5.49441 13.3332 5.92108 13.0665 6.14774 12.6665H6.33441C7.06774 12.6665 7.66774 12.0665 7.66774 11.3332V9.79317C7.66774 9.4265 7.81441 9.0665 8.09441 8.81984C9.06108 7.9665 9.66774 6.71984 9.66774 5.33317C9.66774 2.75317 7.58108 0.666504 5.00108 0.666504ZM5.33441 7.99984H4.66774V6.27317L3.44774 5.05984L3.92108 4.5865L5.00108 5.6665L6.08108 4.5865L6.55441 5.05984L5.33441 6.27984V7.99984ZM6.00108 11.3332C5.99441 11.3332 5.98774 11.3265 5.98108 11.3265V11.3332H4.02108V11.3265C4.01441 11.3265 4.00774 11.3332 4.00108 11.3332C3.81441 11.3332 3.66774 11.1865 3.66774 10.9998C3.66774 10.8132 3.81441 10.6665 4.00108 10.6665C4.00774 10.6665 4.01441 10.6732 4.02108 10.6732V10.6665H5.98108V10.6732C5.98774 10.6732 5.99441 10.6665 6.00108 10.6665C6.18774 10.6665 6.33441 10.8132 6.33441 10.9998C6.33441 11.1865 6.18774 11.3332 6.00108 11.3332ZM6.00108 9.99984H4.00108C3.81441 9.99984 3.66774 9.85317 3.66774 9.6665C3.66774 9.47984 3.81441 9.33317 4.00108 9.33317H6.00108C6.18774 9.33317 6.33441 9.47984 6.33441 9.6665C6.33441 9.85317 6.18774 9.99984 6.00108 9.99984Z" fill="white"/>
</svg>
