<svg width="14" height="14" viewBox="0 0 14 14" fill="none" xmlns="http://www.w3.org/2000/svg">
<path d="M12.3333 8.33337C13.0697 8.33337 13.6667 7.73642 13.6667 7.00004C13.6667 6.26366 13.0697 5.66671 12.3333 5.66671C11.597 5.66671 11 6.26366 11 7.00004C11 7.73642 11.597 8.33337 12.3333 8.33337Z" fill="white"/>
<path d="M1.66668 8.33337C2.40306 8.33337 3.00001 7.73642 3.00001 7.00004C3.00001 6.26366 2.40306 5.66671 1.66668 5.66671C0.930297 5.66671 0.333344 6.26366 0.333344 7.00004C0.333344 7.73642 0.930297 8.33337 1.66668 8.33337Z" fill="white"/>
<path d="M7.00001 13.6667C7.73639 13.6667 8.33334 13.0698 8.33334 12.3334C8.33334 11.597 7.73639 11 7.00001 11C6.26363 11 5.66668 11.597 5.66668 12.3334C5.66668 13.0698 6.26363 13.6667 7.00001 13.6667Z" fill="white"/>
<path d="M4.26001 8.76671L2.30001 10.72C2.04001 10.98 2.04001 11.4 2.30001 11.66C2.56001 11.92 2.98001 11.92 3.24001 11.66L5.20001 9.70671C5.46001 9.45337 5.46001 9.02671 5.20001 8.76671C4.94001 8.50671 4.52001 8.50671 4.26001 8.76671Z" fill="white"/>
<path d="M3.27334 2.29337C3.01334 2.03337 2.59334 2.03337 2.33334 2.29337C2.07334 2.55337 2.07334 2.97337 2.33334 3.23337L4.28668 5.19337C4.54668 5.45337 4.96668 5.45337 5.23334 5.19337C5.48668 4.93337 5.48668 4.51337 5.22668 4.25337L3.27334 2.29337Z" fill="white"/>
<path d="M9.74668 8.76671C9.48668 8.50671 9.06668 8.50671 8.80001 8.76671C8.54001 9.02671 8.54001 9.44671 8.80001 9.70671L10.76 11.6667C11.02 11.9267 11.44 11.9267 11.7 11.6667C11.96 11.4067 11.96 10.9867 11.7 10.7267L9.74668 8.76671Z" fill="white"/>
<path d="M9.70668 5.22004L11.7 3.23337C11.96 2.96671 11.96 2.54671 11.7 2.28671C11.44 2.02671 11.02 2.02671 10.76 2.28671L8.76668 4.27337C8.50668 4.53337 8.50668 4.95337 8.76668 5.22004C9.02668 5.48004 9.44668 5.48004 9.70668 5.22004Z" fill="white"/>
<path d="M7.00001 3.00004C7.73639 3.00004 8.33334 2.40309 8.33334 1.66671C8.33334 0.930328 7.73639 0.333374 7.00001 0.333374C6.26363 0.333374 5.66668 0.930328 5.66668 1.66671C5.66668 2.40309 6.26363 3.00004 7.00001 3.00004Z" fill="white"/>
</svg>
