<svg width="90" height="28" viewBox="0 0 90 28" fill="none" xmlns="http://www.w3.org/2000/svg">
<path d="M4.03677 9.2252C4.03677 10.3137 4.33122 10.3941 5.5804 10.4387V10.8135H0.735348V10.4476C1.73469 10.4476 2.02915 10.2781 2.02915 9.23416V2.20301C2.02915 1.11443 1.73469 1.02521 0.771039 0.989512V0.632603H9.31011V2.89899H8.89967C8.56061 1.76579 8.14123 1.39104 6.13361 1.39104H4.58106C4.08138 1.39104 4.00108 1.47134 4.00108 1.9264V5.19213H5.78563C7.40957 5.19213 7.74863 4.89768 7.92709 3.85372H8.30185V7.4942H7.92709C7.71295 6.28071 7.08835 5.94165 5.78563 5.94165H4.00108V9.24303L4.03677 9.2252ZM14.1641 9.2252C14.1641 10.3137 14.4496 10.3941 15.7078 10.4387V10.8135H10.6039V10.4476C11.8174 10.4476 12.1565 10.2781 12.1565 9.23416V2.20301C12.1565 1.11443 11.9066 1.02521 10.6039 0.989512V0.632603H15.7078V1.01628C14.4942 1.01628 14.1641 1.17689 14.1641 2.22978V9.2252ZM26.2901 2.41715C26.2901 1.40889 26.0403 0.989512 24.8714 0.864593V0.489838H28.5119V0.864593C27.3787 0.989512 27.0842 1.39996 27.0842 2.41715V10.983H26.5667L19.5446 2.86329V8.84154C19.5446 9.84984 19.7943 10.2603 20.9632 10.3941V10.7689H17.3049V10.3941C18.4381 10.2692 18.7326 9.85871 18.7326 8.84154V1.97102C18.6002 1.69196 18.4003 1.45034 18.1511 1.26804C17.9018 1.08575 17.6109 0.968539 17.3049 0.927057V0.552297H20.1067L26.2544 7.6905V2.41715H26.2901ZM31.7687 7.1016L33.3213 3.04174L34.8649 7.1016H31.7687ZM39.13 10.7777V10.4476C38.3269 10.4476 38.1752 10.1532 37.7916 9.18954L34.1511 0.311383H33.6514L29.886 9.47507C29.8018 9.74689 29.6359 9.98616 29.4107 10.1602C29.1855 10.3343 28.9121 10.4346 28.6279 10.4476V10.8224H31.9204V10.4476C31.2065 10.4476 30.8764 10.2781 30.8764 9.77843C31.0137 9.13788 31.2078 8.51078 31.4564 7.90465H35.1861C35.4553 8.50721 35.6646 9.13487 35.8107 9.77843C35.8107 10.2781 35.4359 10.4476 34.7221 10.4476V10.8224L39.13 10.7777ZM49.1413 2.41715C49.1413 1.40889 48.8915 0.989512 47.7225 0.864593V0.489838H51.363V0.864593C50.2299 0.989512 49.9354 1.39996 49.9354 2.41715V10.983H49.4001L42.3778 2.86329V8.84154C42.3778 9.84984 42.6277 10.2603 43.7966 10.3941V10.7689H40.1383V10.3941C41.2714 10.2692 41.557 9.85871 41.557 8.84154V1.97102C41.431 1.68915 41.234 1.44478 40.9854 1.2618C40.7367 1.07882 40.4448 0.963473 40.1383 0.927057V0.552297H42.94L49.0878 7.6905L49.1413 2.41715ZM62.1507 8.3954C61.7223 9.23736 61.06 9.93788 60.2433 10.4127C59.4266 10.8876 58.4902 11.1165 57.5465 11.0722C54.2005 11.0722 52.1929 8.89507 52.1929 5.59365C52.1928 4.88303 52.3342 4.1795 52.6088 3.52407C52.8834 2.86866 53.2857 2.27447 53.7923 1.77615C54.299 1.27783 54.8997 0.885366 55.5596 0.621625C56.2195 0.357887 56.9252 0.228158 57.6358 0.240001C58.6024 0.35582 59.5557 0.564994 60.4821 0.864593C60.7677 0.864593 60.8569 0.695062 61.1513 0.240001H61.6867L61.8919 3.66634H61.4726C60.8479 2.07809 59.804 0.909211 57.9927 0.909211C55.5656 0.909211 54.5128 3.58604 54.5128 5.50443C54.5128 8.27048 55.6817 10.1532 58.2782 10.1532C59.0024 10.1132 59.7059 9.89729 60.3278 9.52417C60.9497 9.15105 61.4713 8.63189 61.8473 8.01172L62.1507 8.3954ZM67.085 9.19841C67.085 10.287 67.3794 10.3673 68.6375 10.4119V10.7867H63.5337V10.4476C64.7472 10.403 65.0773 10.2781 65.0773 9.23416V2.21193C65.0773 1.12335 64.7829 1.03413 63.5337 0.998436V0.632603H68.6375V1.01628C67.424 1.01628 67.085 1.17689 67.085 2.22978V9.19841ZM72.858 7.11052L74.4105 3.05067L75.9542 7.11052H72.858ZM80.2193 10.7867V10.4476C79.4162 10.4476 79.2556 10.1532 78.8808 9.18954L75.2403 0.320306H74.7496L70.9753 9.48394C70.8896 9.7542 70.7229 9.99155 70.4979 10.1639C70.2729 10.3362 70.0004 10.4353 69.7171 10.4476V10.8224H73.0275V10.4476C72.3137 10.4476 71.9836 10.2781 71.9836 9.77843C72.1209 9.13788 72.3149 8.51078 72.5636 7.90465H76.2843C76.5564 8.50695 76.7686 9.13459 76.9179 9.77843C76.9179 10.2781 76.5431 10.4476 75.8292 10.4476V10.8224L80.2193 10.7867ZM81.1115 10.7867V10.4476C82.0752 10.403 82.3696 10.2781 82.3696 9.23416V2.20301C82.3696 1.11443 82.0752 1.03413 81.1115 0.989512V0.632603H85.8406V1.00736C84.7074 1.00736 84.4219 1.1769 84.4219 2.22085V9.44828C84.4219 10.0818 84.5825 10.287 85.7157 10.287C87.5537 10.287 88.6424 9.9569 89.5168 8.14557H89.9183L89.2045 10.9116H81.0491V10.8224L81.1115 10.7867ZM2.9125 27.0618C4.0903 27.0618 4.37584 26.9012 4.37584 25.8483V17.9427H3.11772C1.94885 17.9427 1.44917 18.4513 1.1101 19.8165H0.690735L0.940571 17.1397H9.9793L10.2292 19.8165H9.8098C9.47069 18.3978 9.00674 17.9427 7.80217 17.9427H6.54406V25.8483C6.54406 26.9369 6.83852 27.0261 8.00739 27.0618V27.4454H3.07311V27.0618H2.9125ZM14.7976 25.8483C14.7976 26.9369 15.0921 27.0261 16.3413 27.0618V27.4454H11.2375V27.0618C12.4509 27.0618 12.79 26.9012 12.79 25.8483V18.8261C12.79 17.7376 12.4955 17.6483 11.2375 17.6126V17.2289H16.3413V17.5859C15.1277 17.5859 14.7976 17.7554 14.7976 18.7993V25.8483ZM27.1378 17.1486H30.7069V17.5233C29.7432 17.5233 29.4577 17.6929 29.4577 18.7369V25.8126C29.4577 26.9012 29.7432 26.9815 30.7069 27.0261V27.4009H26.0314V27.0261C27.0396 27.0261 27.3251 26.8565 27.3251 25.8126V18.5852L23.8899 27.5793H23.3546L19.9638 18.5852V25.5271C19.9638 26.5264 20.2137 26.9458 21.3826 27.0708V27.4544H17.7064V27.0708C18.8396 26.9458 19.1252 26.5354 19.1252 25.5271V18.4781C19.1252 17.7732 18.8396 17.5145 17.7064 17.5145V17.1397H21.4273L24.1576 24.2779L27.1378 17.1486ZM32.1167 27.4009V27.0261C33.0804 27.0261 33.3659 26.8565 33.3659 25.8126V18.8261C33.3659 17.7376 33.0804 17.6483 32.1167 17.6126V17.2289H40.6825V19.4953H40.2632C39.933 18.3621 39.5136 17.9873 37.5061 17.9873H35.9535C35.4449 17.9873 35.3645 18.0677 35.3645 18.5227V21.7885H37.1491C38.7819 21.7885 39.1121 21.494 39.2906 20.4501H39.6653V24.0906H39.2906C39.0854 22.877 38.4519 22.5825 37.1491 22.5825H35.3645V26.1517C35.3645 26.7852 35.5341 26.9904 37.3722 26.9904C39.2103 26.9904 40.2988 26.6602 41.1822 24.849H41.557L40.8431 27.5882H32.0275V27.4009H32.1167ZM43.0025 24.1887H43.3772C43.7966 25.5271 45.1617 26.9904 46.643 26.9904C46.8766 27.0126 47.1124 26.9841 47.3342 26.9068C47.556 26.8296 47.7584 26.7054 47.9278 26.5428C48.0971 26.3801 48.2295 26.1829 48.3157 25.9646C48.402 25.7461 48.4401 25.5117 48.4275 25.2772C48.4275 22.8949 43.0739 22.4755 43.0739 19.5488C43.1154 18.8088 43.4449 18.1144 43.9918 17.6141C44.5387 17.1139 45.2596 16.8475 46.0005 16.872C47.5441 16.872 48.0884 17.4074 48.7576 17.4074C48.8996 17.4074 49.0358 17.351 49.1362 17.2506C49.2366 17.1501 49.293 17.014 49.293 16.872H49.6678V20.2626H49.293C49.1669 19.5723 48.8158 18.9431 48.2943 18.4734C47.7729 18.0036 47.1107 17.7198 46.4109 17.6662C46.2077 17.6445 46.0021 17.6665 45.808 17.7306C45.6139 17.7948 45.4357 17.8996 45.2854 18.0381C45.1351 18.1766 45.016 18.3456 44.9363 18.5338C44.8564 18.7221 44.8178 18.9251 44.8227 19.1295C44.8227 21.2263 50.1763 21.2709 50.1763 24.9025C50.1683 25.3033 50.0777 25.698 49.9102 26.0621C49.7428 26.4264 49.5022 26.7521 49.2033 27.0192C48.9044 27.2863 48.5537 27.4889 48.1731 27.6144C47.7925 27.7399 47.39 27.7857 46.9909 27.7489C45.2063 27.7489 44.7335 27.1242 44.0196 27.1242C43.7698 27.1242 43.6003 27.2938 43.4843 27.6597H42.9489L43.0025 24.1887Z" fill="#323334"/>
</svg>
