<svg width="52" height="28" viewBox="0 0 52 28" fill="none" xmlns="http://www.w3.org/2000/svg">
<path d="M8.86787 0.374341V0.922267L9.37552 1.04314C10.1813 1.23652 10.278 1.71193 10.5922 3.20261L11.398 7.40874L9.13377 19.6807L6.02349 4.25817C5.66895 2.56604 5.55614 1.30904 6.82926 1.03507L7.41748 0.914212V0.374341H0.0527039V0.922267L0.802073 1.09954C1.55144 1.29293 1.86569 1.64746 2.37333 3.96809L7.36913 27.6175H8.65837L12.0024 9.75358L15.7089 27.6175H16.7322L21.5669 4.70134C22.1148 2.06647 22.3726 1.3171 23.2993 1.07536L24.0487 0.881975V0.374341H18.5855V0.922267L19.3912 1.08342C20.5677 1.31709 20.8497 2.06647 20.2937 5.11229L17.3527 19.6968L14.3713 4.27429C14.049 2.74331 13.8556 1.32516 15.1771 1.05119L16.0393 0.890039V0.342111L8.86787 0.374341ZM43.8707 0.44686V1.00284L44.8537 1.23652C45.7159 1.42991 46.0704 1.74415 46.0704 2.84807V21.9288C46.0704 24.056 46.0704 26.844 43.8707 26.844C42.6137 26.844 41.6307 25.7482 41.7032 24.9988C41.7837 23.7821 43.911 23.8546 44.0238 21.8885C44.0697 21.6419 44.0635 21.3886 44.0056 21.1446C43.9477 20.9006 43.8394 20.6714 43.6876 20.4718C43.5358 20.2722 43.344 20.1066 43.1242 19.9856C42.9046 19.8647 42.6621 19.791 42.4122 19.7693C41.1956 19.6082 39.6968 20.6315 39.6565 22.6782C39.6565 25.3131 41.3486 27.7143 44.2977 27.7143C47.5612 27.7143 49.6964 25.5064 49.6964 21.2681V2.88835C49.6964 1.78445 49.9704 1.42991 50.752 1.27681L51.6222 0.986724V0.438804L43.8707 0.44686ZM30.6157 0.293763C27.2717 0.293763 25.3862 3.0898 25.3862 6.73995C25.3862 13.5488 34.1611 16.1837 34.1611 22.3236C34.1611 25.2324 32.9364 26.844 31.1717 26.844C28.5368 26.844 26.6513 23.6612 26.1759 18.5848H25.5877V27.545H26.063C26.4579 26.2558 26.9655 26.1269 27.4006 26.1269C28.1501 26.1269 28.9316 27.6982 31.212 27.6982C34.7171 27.6982 36.9974 24.6765 36.9974 20.5026C36.9974 12.316 28.2548 10.3096 28.2548 4.45155C28.2548 3.11397 28.6497 1.14789 30.6157 1.14789C33.452 1.14789 34.6446 4.87862 35.1442 9.40707H35.7323V0.438804H35.2651C35.0635 1.30098 34.7091 1.69581 34.2014 1.69581C33.2909 1.69581 32.8316 0.285706 30.656 0.285706L30.6157 0.293763ZM36.9491 8.01308V8.10977V8.0292V8.01308Z" fill="#323334"/>
</svg>
