<svg width="12" height="14" viewBox="0 0 12 14" fill="none" xmlns="http://www.w3.org/2000/svg">
<path d="M10.6667 1.66683H10V1.00016C10 0.633496 9.7 0.333496 9.33333 0.333496C8.96667 0.333496 8.66667 0.633496 8.66667 1.00016V1.66683H3.33333V1.00016C3.33333 0.633496 3.03333 0.333496 2.66667 0.333496C2.3 0.333496 2 0.633496 2 1.00016V1.66683H1.33333C0.593333 1.66683 0.00666666 2.26683 0.00666666 3.00016L0 12.3335C0 13.0668 0.593333 13.6668 1.33333 13.6668H10.6667C11.4 13.6668 12 13.0668 12 12.3335V3.00016C12 2.26683 11.4 1.66683 10.6667 1.66683ZM10 12.3335H2C1.63333 12.3335 1.33333 12.0335 1.33333 11.6668V5.00016H10.6667V11.6668C10.6667 12.0335 10.3667 12.3335 10 12.3335ZM3.33333 6.3335H5.33333C5.7 6.3335 6 6.6335 6 7.00016V9.00016C6 9.36683 5.7 9.66683 5.33333 9.66683H3.33333C2.96667 9.66683 2.66667 9.36683 2.66667 9.00016V7.00016C2.66667 6.6335 2.96667 6.3335 3.33333 6.3335Z" fill="black"/>
</svg>
