<svg width="14" height="14" viewBox="0 0 14 14" fill="none" xmlns="http://www.w3.org/2000/svg">
<path d="M3.44582 7.8335C1.97249 7.8335 0.779154 9.02683 0.779154 10.5002C0.779154 11.9735 1.97249 13.1668 3.44582 13.1668C4.91915 13.1668 6.11249 11.9735 6.11249 10.5002C6.11249 9.02683 4.91915 7.8335 3.44582 7.8335ZM7.43249 8.50016V12.5002C7.43249 12.8668 7.73249 13.1668 8.09915 13.1668H12.0992C12.4658 13.1668 12.7658 12.8668 12.7658 12.5002V8.50016C12.7658 8.1335 12.4658 7.8335 12.0992 7.8335H8.09915C7.73249 7.8335 7.43249 8.1335 7.43249 8.50016ZM2.85249 1.54683L0.652487 5.50683C0.405821 5.9535 0.725821 6.50016 1.23249 6.50016H5.63249C6.13915 6.50016 6.45915 5.9535 6.21249 5.50683L4.01249 1.54683C3.75915 1.0935 3.10582 1.0935 2.85249 1.54683ZM11.5992 0.833496C10.8925 0.833496 10.3925 1.20683 10.0992 1.6135C9.80582 1.20683 9.30582 0.833496 8.59915 0.833496C7.55915 0.833496 6.76582 1.68683 6.76582 2.66683C6.76582 3.88683 8.11915 4.78016 9.66582 6.12016C9.91249 6.3335 10.2792 6.3335 10.5325 6.12016C12.0792 4.78016 13.4325 3.88683 13.4325 2.66683C13.4325 1.68683 12.6392 0.833496 11.5992 0.833496Z" fill="white"/>
</svg>
