<svg width="12" height="14" viewBox="0 0 12 14" fill="none" xmlns="http://www.w3.org/2000/svg">
<path d="M9.39335 2.18377C8.92669 1.4971 8.39335 0.857105 7.79335 0.283771C7.56002 0.0571047 7.16669 0.270438 7.23335 0.590438C7.36002 1.2171 7.49335 2.04377 7.49335 2.78377C7.49335 4.1571 6.59335 5.27044 5.22002 5.27044C4.19335 5.27044 3.35335 4.65044 2.98669 3.76377C2.92002 3.63044 2.89335 3.55044 2.85335 3.40377C2.78002 3.12377 2.41335 3.0371 2.25335 3.28377C2.13335 3.46377 2.02002 3.64377 1.91335 3.8371C1.12002 5.1971 0.666687 6.78377 0.666687 8.47711C0.666687 11.4238 3.05335 13.8104 6.00002 13.8104C8.94669 13.8104 11.3334 11.4238 11.3334 8.47711C11.3334 6.15044 10.6134 3.99044 9.39335 2.18377ZM5.80669 11.8104C4.62002 11.8104 3.66002 10.8771 3.66002 9.7171C3.66002 8.6371 4.36002 7.8771 5.53335 7.6371C6.51335 7.4371 7.52002 7.0171 8.22002 6.3571C8.40669 6.18377 8.71335 6.26377 8.76669 6.51044C8.92002 7.19044 9.00002 7.8971 9.00002 8.61044C9.00669 10.3771 7.57335 11.8104 5.80669 11.8104Z" fill="white"/>
</svg>
