<svg width="18" height="18" viewBox="0 0 18 18" fill="none" xmlns="http://www.w3.org/2000/svg">
<path d="M0 7.00179V11.0018C0 11.5518 0.45 12.0018 1 12.0018H4L7.29 15.2918C7.92 15.9218 9 15.4718 9 14.5818V3.41179C9 2.52179 7.92 2.07179 7.29 2.70179L4 6.00179H1C0.45 6.00179 0 6.45179 0 7.00179ZM13.5 9.00179C13.5 7.23179 12.48 5.71179 11 4.97179V13.0218C12.48 12.2918 13.5 10.7718 13.5 9.00179ZM11 1.45179V1.65179C11 2.03179 11.25 2.36179 11.6 2.50179C14.18 3.53179 16 6.06179 16 9.00179C16 11.9418 14.18 14.4718 11.6 15.5018C11.24 15.6418 11 15.9718 11 16.3518V16.5518C11 17.1818 11.63 17.6218 12.21 17.4018C15.6 16.1118 18 12.8418 18 9.00179C18 5.16179 15.6 1.89179 12.21 0.601794C11.63 0.371794 11 0.821794 11 1.45179Z" fill="black"/>
</svg>
