<svg width="18" height="18" viewBox="0 0 18 18" fill="none" xmlns="http://www.w3.org/2000/svg">
<path d="M0.63 0.635029C0.24 1.02503 0.24 1.65503 0.63 2.04503L4.29 5.70503L4 6.00503H1C0.45 6.00503 0 6.45503 0 7.00503V11.005C0 11.555 0.45 12.005 1 12.005H4L7.29 15.295C7.92 15.925 9 15.475 9 14.585V10.415L13.18 14.595C12.69 14.965 12.16 15.275 11.58 15.505C11.22 15.655 11 16.035 11 16.425C11 17.145 11.73 17.605 12.39 17.335C13.19 17.005 13.94 16.565 14.61 16.025L15.95 17.365C16.34 17.755 16.97 17.755 17.36 17.365C17.75 16.975 17.75 16.345 17.36 15.955L2.05 0.635029C1.66 0.245029 1.03 0.245029 0.63 0.635029ZM16 9.00503C16 9.82503 15.85 10.615 15.59 11.345L17.12 12.875C17.68 11.705 18 10.395 18 9.00503C18 5.17503 15.6 1.89503 12.22 0.605029C11.63 0.375029 11 0.835029 11 1.46503V1.65503C11 2.03503 11.25 2.36503 11.61 2.50503C14.18 3.54503 16 6.06503 16 9.00503ZM7.29 2.71503L7.12 2.88503L9 4.76503V3.41503C9 2.52503 7.92 2.08503 7.29 2.71503ZM13.5 9.00503C13.5 7.23503 12.48 5.71503 11 4.97503V6.76503L13.48 9.24503C13.49 9.16503 13.5 9.08503 13.5 9.00503Z" fill="black"/>
</svg>
